<?xml version="1.0" standalone="no"?>
<!DOCTYPE svg PUBLIC "-//W3C//DTD SVG 20010904//EN"
 "http://www.w3.org/TR/2001/REC-SVG-20010904/DTD/svg10.dtd">
<svg version="1.0" xmlns="http://www.w3.org/2000/svg"
 width="1056.000000pt" height="1056.000000pt" viewBox="0 0 1056.000000 1056.000000"
 preserveAspectRatio="xMidYMid meet">
<metadata>
Created by potrace 1.11, written by Peter Selinger 2001-2013
</metadata>
<g transform="translate(0.000000,1056.000000) scale(0.100000,-0.100000)"
fill="#000000" stroke="none">
<path d="M3069 8126 c-4 -58 0 -948 4 -953 4 -4 759 -7 928 -4 l35 1 0 483 -1
482 -482 1 c-344 1 -483 -2 -484 -10z"/>
<path d="M5005 7657 c0 -365 -3 -481 -12 -484 -6 -3 -224 -5 -484 -6 l-473 -2
0 -482 0 -483 -50 -1 c-28 0 -246 0 -483 0 l-433 0 -1 -42 c-1 -53 0 -886 0
-909 1 -17 31 -18 484 -18 l483 0 0 483 -1 482 485 1 485 2 -1 -477 c-1 -262
-2 -479 -3 -483 0 -4 -218 -9 -483 -10 l-482 -3 -1 -480 0 -480 -479 -2 c-263
-1 -480 -4 -483 -7 -3 -3 -5 -220 -5 -483 l-1 -478 354 -2 c195 -1 413 -2 485
-2 l131 -1 -1 -480 c-1 -473 -1 -481 19 -485 39 -7 4820 0 4823 8 1 4 2 10 1
15 -1 4 0 25 1 47 5 99 4 147 -3 152 -4 3 -3 11 3 18 8 9 8 15 0 20 -6 3 -8
10 -5 15 9 15 9 195 0 210 -5 7 -4 11 1 8 7 -5 10 127 4 167 -1 6 -1 28 0 50
5 98 4 147 -3 152 -4 2 -4 10 0 16 4 6 6 28 4 49 -2 34 0 38 21 38 13 0 231 1
486 1 l462 1 0 1939 0 1938 -485 0 -485 -1 -1 -41 c-1 -52 1 -161 4 -295 1
-56 -1 -102 -5 -102 -4 0 -4 -10 1 -22 4 -12 5 -39 1 -60 -4 -22 -3 -38 2 -38
5 0 7 -4 4 -9 -6 -10 -7 -86 -4 -244 2 -59 0 -107 -4 -107 -4 0 -4 -10 1 -22
4 -12 5 -39 1 -60 -4 -22 -3 -38 2 -38 5 0 7 -4 4 -9 -6 -10 -7 -86 -4 -244 2
-59 0 -107 -4 -107 -4 0 -4 -10 1 -22 4 -12 5 -39 1 -60 -4 -22 -3 -38 2 -38
5 0 7 -4 4 -9 -5 -8 -7 -95 -5 -161 1 -8 0 -42 0 -75 -1 -33 0 -108 1 -168 2
-59 0 -107 -4 -107 -4 0 -4 -10 1 -22 4 -12 5 -39 1 -60 -4 -22 -3 -38 2 -38
5 0 7 -4 4 -9 -6 -10 -7 -86 -4 -244 2 -59 0 -107 -4 -107 -4 0 -4 -10 1 -22
4 -12 5 -39 1 -60 -4 -22 -3 -38 2 -38 5 0 7 -4 4 -9 -6 -10 -7 -86 -4 -244 2
-59 0 -107 -4 -107 -4 0 -4 -10 1 -22 4 -12 5 -39 1 -60 -4 -22 -3 -38 2 -38
5 0 7 -4 4 -9 -6 -10 -7 -86 -4 -244 2 -59 0 -107 -4 -107 -4 0 -4 -10 1 -22
4 -12 5 -39 1 -60 -4 -21 -4 -38 -1 -38 4 0 4 -25 1 -55 -3 -30 -4 -55 -1 -55
7 0 5 -135 -2 -154 -5 -12 -145 -14 -969 -12 l-963 1 0 1935 0 1935 965 1 964
1 7 27 c4 14 3 28 -2 32 -5 3 -7 9 -4 14 9 15 9 195 0 210 -5 7 -4 11 1 8 10
-7 11 193 0 210 -3 6 -2 14 4 17 8 5 8 11 1 19 -6 7 -8 15 -5 18 8 9 8 193 -1
208 -5 7 -4 11 1 8 10 -6 11 159 1 168 -3 3 -3 12 -1 18 4 10 -392 13 -1933
13 l-1938 0 0 -480z"/>
<path d="M1136 7162 c-3 -3 -6 -222 -6 -486 l0 -481 468 2 c257 1 474 2 483 2
15 1 16 47 17 486 l1 484 -479 0 c-263 -1 -481 -4 -484 -7z"/>
</g>
</svg>
